# xmcd CD database file
#
# Track frame offsets:
#	150
#	6402
#	26812
#	45987
#	65202
#	82920
#	88400
#	106837
#	124387
#	146462
#
# Disc length: 2368 seconds
#
# Revision: 0
# Processed by: cddbd v1.5PL3 Copyright (c) Steve Scherf et al.
# Submitted via: CDex 1.51
#
DISCID=87093e0a
DTITLE=deeps - Teen's Heaven single collection
DYEAR=1999
DGENRE=JPop
TTITLE0=Overture 9901
TTITLE1=Brand-New Heaven
TTITLE2=ハピネス
TTITLE3=Maybe Love
TTITLE4=Love is Real
TTITLE5=Teen's Heaven -interlude-
TTITLE6=LOVING YOU
TTITLE7=Jealousy
TTITLE8=Teen's
TTITLE9=deeps Special Single Medley
EXTD=YEAR: 1999
EXTT0=
EXTT1=
EXTT2=
EXTT3=
EXTT4=
EXTT5=
EXTT6=
EXTT7=
EXTT8=
EXTT9=
PLAYORDER=
